# xmcd
#
# Track frame offsets:
#	150
#	12530
#	25065
#	37330
#	49085
#	68792
#	83315
#	110698
#	133720
#	153830
#	168485
#	185528
#	204073
#	219818
#	236710
#	256988
#	276368
#	297265
#	319700
#	339200
#
# Disc length: 4721 seconds
#
# Revision: 0
# Processed by: cddbd v1.5.2PL0 Copyright (c) Steve Scherf et al.
# Submitted via: EasyCDDAExtractor 10.0.3.1
#
DISCID=17126f14
DTITLE=Otis Spann - Ebony and ivory blues
DYEAR=2012
DGENRE=Blues
TTITLE0=It must have been the Devil
TTITLE1=Five spot
TTITLE2=I'm leaving you
TTITLE3=I'm in love with you baby
TTITLE4=Worried life blues
TTITLE5=This is the blues
TTITLE6=Beat-up team
TTITLE7=The hard way
TTITLE8=Country boy
TTITLE9=My home is on the delta
TTITLE10=It must have been the Devil
TTITLE11=Ramblin on my mind
TTITLE12=Take a little walk with me
TTITLE13=Little boy blue
TTITLE14=My daily wish
TTITLE15=Great northern stomp
TTITLE16=Otis in the dark
TTITLE17=Walkin the blues
TTITLE18=Cow cow blues
TTITLE19=Spann and Bob
EXTD=
EXTT0=
EXTT1=
EXTT2=
EXTT3=
EXTT4=
EXTT5=
EXTT6=
EXTT7=
EXTT8=
EXTT9=
EXTT10=
EXTT11=
EXTT12=
EXTT13=
EXTT14=
EXTT15=
EXTT16=
EXTT17=
EXTT18=
EXTT19=
PLAYORDER=
